Coordinates
version=1
nRows=54
nColumns=12
inDegrees=yes

Units are S.I. units (second, meters, Newtons, ...)
Angles are in degrees

endheader
time	SC_y	SC_z	SC_x	AC_y	AC_z	AC_x	GH_y	GH_z	GH_yy	EL_x	PS_y
       0.0              -51.27           39.3          17.08          43.42         -8.732          18.01          30.29          65.72          84.69          62.37          82.73
   0.03611              -51.27           39.3          17.08          43.43          -8.73           18.0          30.28          65.71          84.69          62.37          82.73
   0.07221              -51.27           39.3          17.08          43.43         -8.727           18.0          30.27          65.69          84.68          62.37          82.73
    0.1083              -51.26           39.3          17.09          43.43         -8.725          17.99          30.26          65.68          84.67          62.36          82.73
    0.1444              -51.26           39.3          17.09          43.43         -8.722          17.99          30.24          65.67          84.66          62.36          82.73
    0.1805              -51.26          39.29           17.1          43.43          -8.72          17.98          30.23          65.66          84.64          62.35          82.73
    0.2166              -51.26          39.29           17.1          43.44         -8.717          17.97          30.21          65.64          84.63          62.35          82.73
    0.2527              -51.25          39.29          17.11          43.44         -8.714          17.97           30.2          65.63          84.62          62.34          82.73
    0.2888              -51.25          39.29          17.11          43.44          -8.71          17.96          30.18          65.61          84.61          62.33          82.73
     0.325              -51.25          39.28          17.12          43.45         -8.707          17.95          30.16          65.59          84.59          62.33          82.72
    0.3611              -51.24          39.28          17.13          43.45         -8.703          17.94          30.14          65.57          84.57          62.32          82.72
    0.3972              -51.24          39.28          17.13          43.45         -8.699          17.93          30.12          65.55          84.56          62.31          82.72
    0.4333              -51.24          39.27          17.14          43.46         -8.694          17.92           30.1          65.53          84.54          62.31          82.72
    0.4694              -51.23          39.27          17.15          43.46          -8.69          17.91          30.07          65.51          84.52           62.3          82.72
    0.5055              -51.23          39.27          17.16          43.46         -8.684           17.9          30.04          65.48           84.5          62.29          82.71
    0.5416              -51.22          39.26          17.17          43.47         -8.679          17.89          30.01          65.46          84.47          62.28          82.71
    0.5777              -51.22          39.26          17.18          43.47         -8.673          17.87          29.98          65.43          84.45          62.27          82.71
    0.6138              -51.21          39.25          17.19          43.48         -8.666          17.86          29.95          65.39          84.42          62.25          82.71
    0.6499               -51.2          39.25          17.21          43.49         -8.659          17.84          29.91          65.36          84.39          62.24           82.7
     0.686               -51.2          39.24          17.22          43.49         -8.651          17.82          29.87          65.32          84.36          62.23           82.7
    0.7221              -51.19          39.23          17.23           43.5         -8.642           17.8          29.82          65.28          84.32          62.21           82.7
    0.7582              -51.18          39.23          17.25          43.51         -8.632          17.78          29.77          65.23          84.28          62.19          82.69
    0.7943              -51.17          39.22          17.27          43.52         -8.622          17.76          29.71          65.18          84.24          62.17          82.69
    0.8304              -51.16          39.21          17.29          43.53          -8.61          17.73          29.65          65.12          84.19          62.15          82.68
    0.8665              -51.15           39.2          17.31          43.54         -8.597           17.7          29.58          65.06          84.13          62.13          82.68
    0.9026              -51.13          39.19          17.34          43.55         -8.582          17.67          29.51          64.98          84.07           62.1          82.67
    0.9387              -51.12          39.18          17.37          43.57         -8.566          17.63          29.42           64.9           84.0          62.07          82.66
    0.9749               -51.1          39.16           17.4          43.58         -8.547          17.59          29.32          64.81          83.93          62.04          82.66
     1.011              -51.08          39.15          17.44           43.6         -8.526          17.54          29.22          64.71          83.84           62.0          82.65
     1.047              -51.06          39.13          17.48          43.62         -8.503          17.49          29.09           64.6          83.74          61.96          82.64
     1.083              -51.04          39.11          17.53          43.64         -8.476          17.42          28.95          64.46          83.63          61.91          82.63
     1.119              -51.01          39.09          17.58          43.67         -8.445          17.35          28.79          64.31           83.5          61.86          82.61
     1.155              -50.98          39.06          17.64           43.7         -8.409          17.27           28.6          64.14          83.35          61.79           82.6
     1.191              -50.94          39.03          17.72          43.74         -8.368          17.18          28.38          63.94          83.18          61.72          82.58
     1.228              -50.89          38.99           17.8          43.78         -8.319          17.07          28.13           63.7          82.98          61.63          82.56
     1.264              -50.84          38.95           17.9          43.83         -8.262          16.94          27.83          63.42          82.74          61.52          82.54
       1.3              -50.78           38.9          18.02          43.88         -8.193          16.78          27.47          63.08          82.46           61.4          82.51
     1.336              -50.71          38.84          18.17          43.95         -8.112           16.6          27.04          62.69          82.12          61.25          82.48
     1.372              -50.62          38.77          18.34          44.04         -8.013          16.37          26.52           62.2          81.71          61.08          82.43
     1.408              -50.51          38.68          18.56          44.14         -7.892           16.1          25.89          61.61          81.21          60.86          82.38
     1.444              -50.37          38.56          18.82          44.27         -7.743          15.76          25.11          60.88          80.59          60.59          82.32
      1.48               -50.2          38.43          19.14          44.43         -7.558          15.33          24.13          59.98          79.82          60.25          82.24
     1.516              -49.99          38.25          19.56          44.63         -7.324           14.8          22.91          58.83          78.84          59.83          82.15
     1.553              -49.72          38.03          20.08          44.88         -7.026          14.12          21.35          57.38          77.61          59.29          82.02
     1.589              -49.37          37.75          20.75          45.21         -6.646          13.26          19.35          55.52          76.03          58.61          81.86
     1.625              -48.92          37.38          21.61          45.63         -6.157          12.14          16.79          53.13           74.0          57.72          81.66
     1.661              -48.35          36.92          22.71          46.16         -5.533          10.72          13.52          50.08           71.4           56.6           81.4
     1.697              -47.64          36.33          24.09          46.83         -4.749          8.935          9.401          46.25          68.14          55.18          81.07
     1.733              -46.77          35.62          25.78          47.65         -3.793          6.757          4.386          41.57          64.17          53.45          80.67
     1.769              -45.76          34.79          27.73           48.6         -2.685          4.233         -1.426          36.15          59.57          51.45          80.21
     1.805              -44.66          33.89          29.84          49.62         -1.485          1.499          -7.72          30.29          54.58          49.28          79.71
     1.841              -43.57           33.0          31.96          50.65        -0.2847         -1.234         -14.01          24.42          49.59          47.12          79.21
     1.877              -42.56          32.17          33.91           51.6         0.8235         -3.758         -19.83           19.0          44.99          45.11          78.74
     1.914              -41.69          31.46          35.59          52.42           1.78         -5.936         -24.84          14.33          41.02          43.39          78.34
